PathFileType	4	(X/Y/Z)	none_P007_Squats1_0-2550.trc
DataRate	CameraRate	NumFrames	NumMarkers	Units	OrigDataRate	OrigDataStartFrame	OrigNumFrames
85	85	9	21	m	85	0	2550
Frame#	Time	RHip			RKnee			RAnkle			RBigToe			RSmallToe			RHeel			LHip			LKnee			LAnkle			LBigToe			LSmallToe			LHeel			Neck			Head			Nose			RShoulder			RElbow			RWrist			LShoulder			LElbow			LWrist		
		X1	Y1	Z1	X2	Y2	Z2	X3	Y3	Z3	X4	Y4	Z4	X5	Y5	Z5	X6	Y6	Z6	X7	Y7	Z7	X8	Y8	Z8	X9	Y9	Z9	X10	Y10	Z10	X11	Y11	Z11	X12	Y12	Z12	X13	Y13	Z13	X14	Y14	Z14	X15	Y15	Z15	X16	Y16	Z16	X17	Y17	Z17	X18	Y18	Z18	X19	Y19	Z19	X20	Y20	Z20	X21	Y21	Z21
1	0.0117647058823529	0.74286925500653	0.8667664707910718	0.41274805922609065	0.7013414095073489	0.45101859912170095	0.40649878494007935	0.7074155706662238	0.07036869605267959	0.3678747234718431	0.5298212648447711	0.010380328215359202	0.3370344808072879	0.5830271107665176	0.017702008425085968	0.2992873723851389	0.7423803546626826	0.025359032711892354	0.3776076358931971	0.7431600907266688	0.8721770698522197	0.6356137259297888	0.7097606578139339	0.46077106418935493	0.6310604908744448	0.7130936323757785	0.06475588083017376	0.6613345268732355	0.5512948109073563	0.0187026629540987	0.6889981747591067	0.5859727203782958	0.022835156175708377	0.7256150677860909	0.752493086100159	0.027070993608086187	0.6483064736166819	0.5509166160952313	1.343578221836274	0.5106715215385387	0.32519537830427125	1.5456761577403402	0.5044766743106391	0.3770595692431691	1.36873381241872	0.5011775708232195	0.6073833677272481	1.3284955664860763	0.37821524982616206	0.8268636484026879	1.2403305052364597	0.3668977065678902	0.6974776964981297	1.3489809172682488	0.2844252636663343	0.5881782448393241	1.3253594680619576	0.6523993034731714	0.8357166071630733	1.2218223792287244	0.6881039646995243	0.6659392074813443	1.3361468321706917	0.7646798540801896
2	0.0235294117647058	0.7453147546081726	0.8659025030772738	0.41430340763822937	0.7016455896227582	0.4510025504184573	0.4067232726911058	0.7075609593773042	0.07083696058721879	0.3670385295005191	0.5309991789523817	0.011151737518128106	0.33693783948114153	0.5846524177671815	0.017580648707039893	0.2992608712109651	0.7428851906855322	0.025791437429659777	0.3773881165076687	0.7426437318488978	0.8713878281920403	0.636393889190505	0.7068314928687824	0.4588212495977793	0.630599081904535	0.7118264357516919	0.06526089926509522	0.6612290678277203	0.5498316951872196	0.018198295235406906	0.6886231331656818	0.5822948491400546	0.022867418220160394	0.7247706625578131	0.750843991350872	0.026803766009990643	0.6485850500625744	0.5504322944420227	1.3431395790271285	0.5107907822505201	0.32584645257018824	1.543068641121314	0.5033416593424446	0.3770432076878664	1.3657689063343093	0.5011627084868346	0.6059974613732014	1.3285777806643162	0.3777123548501952	0.8327429644222839	1.2398756082021714	0.369522126122661	0.698829834849747	1.3487662969606655	0.2873987365878772	0.5888169196814883	1.325135610702341	0.6529817858672091	0.8345658927903273	1.2222103261691137	0.6888744743663586	0.6661119172137412	1.3348006260916445	0.7639132723005837
3	0.0352941176470588	0.7474223518943939	0.8650549286613566	0.4156925016727866	0.7018669103081472	0.45098488419053834	0.4069275081543976	0.7077220359166445	0.0712747843281765	0.3662965134578153	0.5320780841429626	0.011898308155114888	0.33684273013369126	0.5861078436697752	0.017518257077625898	0.299289080564825	0.7433300166768981	0.026194138206103453	0.37714149242379535	0.7421253304964057	0.8706319948744005	0.6371318616419247	0.7040033617408267	0.45710860424636623	0.6302376146815248	0.7106684379084702	0.06568175624545354	0.6611135099875614	0.548475253242928	0.0177221941550981	0.6883730711768765	0.5791363200423787	0.022863031520050488	0.7240841210870724	0.7492787436235506	0.026533465221971305	0.6487918268694056	0.5499554234477345	1.3427124952746405	0.5109168630839033	0.3262744929547881	1.5407403553233399	0.5023355981409489	0.3769346784187136	1.363081506972538	0.50113805929693	0.6048409494094792	1.328645705050387	0.3772799059133598	0.8378452898139719	1.2395136611607616	0.37180785997922167	0.7000371798045391	1.3484963113721693	0.2899661527381788	0.5893200654474984	1.3249135933901375	0.6535119271549432	0.8335480462526855	1.222598864412699	0.6895694034825933	0.6663255273502242	1.3335477821466464	0.7632157962422549
4	0.0470588235294117	0.748935800499507	0.8642594145608465	0.4168078806513018	0.701985504217708	0.4509547320830778	0.4071070499910925	0.7078779812900589	0.07165581499700997	0.3657082396379696	0.5329880258489816	0.012608271989527145	0.3367575764190114	0.5872295070629183	0.017567968211336535	0.2994118088465443	0.7436946293640235	0.026552266026055957	0.37685939823087833	0.7416395928072473	0.8699352058861266	0.6377939277070492	0.7013439115522775	0.4557974502861379	0.6300295807500542	0.7097055233016784	0.06596714621857311	0.6609786370977481	0.5472570361768341	0.017276901416290985	0.6882888341123284	0.5767856094855208	0.02278334301163346	0.7235926660355961	0.7478673474750068	0.026276614176769367	0.6488821906256412	0.5494568432142793	1.3423128905488917	0.5110592670944906	0.3263217726594853	1.5388518389056116	0.5015506752643156	0.3766569084547291	1.3608489890006932	0.501060425767594	0.6040886532221664	1.3286543626297822	0.3770085447998391	0.8417755532569042	1.2392968973501615	0.37358188522344477	0.7010208473331435	1.34814717220059	0.29182239367749774	0.5895958105017277	1.3246856392383823	0.6539577085846328	0.8328016522128837	1.2229606918756593	0.6901126374709811	0.6665355583447135	1.3324261008373361	0.7626294158079555
5	0.0588235294117647	0.7496325665982738	0.8635443764075303	0.41757044853309677	0.702020055113119	0.4509155455232687	0.40728037445763104	0.7079795309091629	0.07195919540691412	0.3652926266383303	0.5336962350637162	0.013284526560389798	0.33669070964447534	0.5879104106116805	0.01776888121738729	0.2996281820392226	0.7439945506816334	0.02687071446226065	0.37656727518128913	0.7412313350584434	0.8693035463747819	0.6383586107139174	0.6989091283254402	0.454944589730825	0.629973311104315	0.7089813855476921	0.06610667138644645	0.6608228359510355	0.5461231351509854	0.016853294686963765	0.6883258312492596	0.5752389766242025	0.022606591636078078	0.7232278189727335	0.7466552272301196	0.026056441295409603	0.6488449094600537	0.5488789374511273	1.3419602832341053	0.511230021267131	0.3259218192986537	1.537399035436358	0.501040317147435	0.3761567213067799	1.359120150723111	0.5008931146941409	0.6038471015669815	1.3285428910840256	0.3769696632672672	0.8445086337298618	1.2392414906567788	0.3748253578312084	0.70173278935244	1.347746923984825	0.29286472986102535	0.5896041674814992	1.3244389409479296	0.6543082447683822	0.832425347195999	1.223254280768718	0.6904497639439073	0.6666090040481452	1.3313988416323586	0.762160019875474
6	0.0705882352941176	0.7493568491414117	0.8629193877937904	0.41792419451853113	0.7019655240341466	0.4509071530525464	0.40748199625463893	0.7079900105147915	0.07218043200403558	0.3650360781324015	0.5341881778025738	0.013933089251707196	0.3366524855699964	0.5881497857335144	0.018133841564529095	0.2999020872912064	0.7442430504239316	0.02716156508249055	0.37630839058073884	0.7409020372565516	0.8687410095694695	0.6388290503703443	0.6967466912022187	0.4545119065974814	0.6300274832262931	0.7084832316498014	0.06612155866747588	0.6606549820908411	0.5449564277740586	0.016453470566534324	0.6884046763394784	0.5742616981047307	0.02234083398887985	0.7228944394887649	0.7456658137838929	0.025877614441888065	0.6486937872316325	0.5481946944003632	1.341669692882035	0.511443116732848	0.3251166007026275	1.5362755847835987	0.5008104294891681	0.3754344779866704	1.3578500274320813	0.5006582214588576	0.6040991710940553	1.328276350457285	0.37717076906279035	0.8462354627979479	1.2393390129825188	0.37561453028601927	0.7020874849462266	1.3473695116696003	0.29322449800508155	0.5893677482323276	1.3241664519621863	0.654572562540342	0.8324124293402128	1.22345326801796	0.6905882542862549	0.6663997272400423	1.3303972216759572	0.7617998816623676
7	0.0823529411764705	0.748103248646003	0.862399871913823	0.4178758923758071	0.7017814323904887	0.4509925940469145	0.4077477645100968	0.7079211398653367	0.07233155263621258	0.36490484982000554	0.5344430440217766	0.014552004348470005	0.336661628034947	0.5880455012647088	0.018637776386221147	0.30019082063336777	0.7444285092860197	0.02742428875536199	0.37610941170811985	0.7405978691051176	0.8682872700217615	0.6392330768424711	0.6948679310534918	0.4544197361030302	0.6301379964346425	0.7081592307930734	0.06604856706348426	0.6604953777380571	0.5436795007967121	0.016092670301979455	0.6884735859396005	0.5735762413701765	0.02201365123284605	0.7225440731872292	0.7448919169720275	0.025721915994247835	0.6484619221403568	0.5474508822168154	1.3414491541763662	0.5117093924400129	0.32404892914100725	1.5353667060444591	0.5007980647292624	0.37456001936245203	1.3569480677637735	0.5004417588790838	0.604686195667128	1.327867523272623	0.37756240375296346	0.8472094392866885	1.23954842922735	0.37607166334253456	0.7019825816064253	1.347117815957013	0.29319487849346393	0.5889669090531596	1.3238665030945842	0.6547858659183509	0.8326450037890494	1.2235531706800382	0.6905993517080156	0.665799641143466	1.3293696726571298	0.7615337434827674
8	0.0941176470588235	0.7460832057673256	0.8620270574153964	0.41751633557053125	0.7014295178955108	0.45122428495742734	0.40810151188541466	0.7078294422041826	0.07243007732643167	0.36485993648190895	0.5344456031700003	0.015127282447920401	0.33674388530033345	0.5877586587545106	0.01920665582090273	0.3004737379663241	0.7445329859025329	0.027651559548448605	0.37597070627465407	0.7402263378102032	0.8680111841568439	0.6395932206344934	0.6932216735857697	0.45460179378274074	0.6302627647336805	0.7079438731749351	0.0659261285437952	0.6603684301760265	0.5423193589551077	0.015781084017964866	0.6885259100887168	0.5729934695041964	0.02166512734528184	0.7221816950163004	0.7442790060264366	0.025564581182065782	0.6481867698512159	0.5467440050962508	1.3413071825000147	0.5120305401594824	0.3229018074450442	1.534598366830554	0.5008922777015256	0.37363739217730935	1.3563186689622142	0.5003384374509737	0.6053851807384644	1.3273779535476953	0.3780770067171098	0.8476317212368641	1.2398005256573004	0.37630718107492755	0.70139446703791	1.3470893829506478	0.2930862832399192	0.5884929092773912	1.3235397511147655	0.6550017493513084	0.8329398645968901	1.2235703254911634	0.6905814467104257	0.6648392072491195	1.3283478045852668	0.7613349244002382
9	0.1058823529411764	0.7436922326370556	0.8618525452314104	0.41698752506328735	0.7009057863067535	0.4516091918338472	0.4085466149096068	0.7077624064280821	0.07249097845215607	0.36487243124793045	0.5342176006029331	0.015631897571309377	0.3369243145998979	0.5874184532656802	0.019731149002226046	0.30076765875761846	0.744560729419145	0.0278492329527892	0.37588161121257585	0.7397183006046246	0.867960711128115	0.6398927483396225	0.6917380271382568	0.45501235640688326	0.6303769097142471	0.7077900848751059	0.06578780837587424	0.6602882705421677	0.5409851822798882	0.015508632039440386	0.6885838963293761	0.5724511895291694	0.02133736936326878	0.7218354830688959	0.7437543027784784	0.025391201183475702	0.6478925626988985	0.5461603298009782	1.3412540898782126	0.5124016634876472	0.32183007865061247	1.5339512036654417	0.5009961316218176	0.3727587895153746	1.3558745159288392	0.5003733634193852	0.6059864676067804	1.3269025398524503	0.378665120975647	0.8476154796902083	1.2400307756497864	0.3763728972591492	0.7004328740059662	1.347320923940506	0.29307924053456424	0.588013852925101	1.323202650621715	0.6552615864901965	0.8331409211861962	1.2235329446010867	0.6906053232002503	0.6637733777049075	1.3274727967422773	0.7611692968356609
